<?xml version="1.0" encoding="UTF-8"?>
<svg xmlns="http://www.w3.org/2000/svg" viewBox="0 0 1095 1095" width="1095" height="1095">
<path d="M0.25 0.25C365.08 0.25 729.92 0.25 1094.75 0.25C1094.75 365.08 1094.75 729.92 1094.75 1094.75C729.92 1094.75 365.08 1094.75 0.25 1094.75C0.25 729.92 0.25 365.08 0.25 0.25ZM138.95 270.87C142.36 324.87 145.76 378.87 149.16 432.88C149.17 435.09 149.17 437.29 149.17 439.5C149.38 439.67 149.6 439.83 149.81 440C149.93 462.12 152.47 484.46 154.01 506.5C157.5 556.48 160.78 606.49 163.9 656.5C165.18 677.15 166.91 697.83 167.88 718.5C168.18 724.91 167.92 742.93 170.71 747.77C173.43 752.51 184.01 757.62 188.76 760.73C204.08 770.76 219.42 780.77 234.84 790.64C287.42 824.29 339.45 858.74 391.86 892.64C428.88 916.58 465.9 940.54 502.75 964.74C510.4 969.77 518.14 974.65 525.78 979.69C528.56 981.52 532.03 984.63 535.5 984.85C539.06 985.07 542.12 982.86 544.98 981.04C545.61 980.67 546.24 980.3 546.87 979.93C548.24 978.94 549.61 977.96 550.97 976.97C552.95 975.99 554.92 975.02 556.89 974.04C557.53 973.68 558.16 973.32 558.8 972.96C560.21 972.03 561.62 971.1 563.02 970.17C565.4 968.79 567.77 967.4 570.14 966.01C571.41 965.36 572.67 964.7 573.94 964.05C574.59 963.68 575.23 963.31 575.88 962.94C576.91 962.31 577.95 961.69 578.98 961.06C604.69 946 630.4 930.95 656.11 915.89C657.72 914.95 659.33 914.01 660.94 913.07C680.71 901.38 700.47 889.7 720.24 878.02C721.51 877.37 722.78 876.73 724.05 876.08C724.67 875.71 725.3 875.34 725.92 874.96C727 874.34 728.07 873.71 729.15 873.08C732.06 871.38 734.97 869.67 737.89 867.96C738.98 867.34 740.07 866.71 741.16 866.08C742.39 865.34 743.62 864.6 744.85 863.87C745.92 863.27 746.98 862.67 748.04 862.07C750.74 860.39 753.44 858.71 756.14 857.03C757.43 856.37 758.72 855.72 760 855.06C762.3 853.7 764.6 852.34 766.89 850.98C767.94 850.34 768.99 849.71 770.04 849.07C770.72 848.67 771.39 848.26 772.07 847.86C773.71 846.92 775.36 845.99 777 845.06C777.6 844.69 778.21 844.32 778.81 843.95C782.23 841.98 785.66 840.02 789.08 838.05C791.35 836.69 793.61 835.33 795.87 833.98C797.24 833 798.61 832.03 799.98 831.05C801.98 830.05 803.98 829.06 805.98 828.06C806.6 827.71 807.22 827.35 807.84 827C808.91 826.35 809.97 825.71 811.04 825.07C811.72 824.67 812.4 824.27 813.07 823.88C814.68 822.93 816.28 821.98 817.88 821.04C820.23 819.67 822.58 818.3 824.92 816.93C826.58 815.97 828.24 815 829.89 814.04C833.93 811.64 837.97 809.25 842.02 806.85C843.64 805.92 845.26 804.99 846.89 804.06C853.99 801.46 860.5 796.37 867.08 792.61C879.98 785.22 892.85 777.73 905.61 770.09C910.72 767.03 922.17 762.33 924.34 756.8C926.13 752.26 925.95 741.65 926.14 736.5C926.51 726.86 927.41 717.14 928.03 707.5C930.34 671.84 932.18 636.13 935.05 600.5C938.5 557.57 940.6 514.43 943.9 471.5C945.39 452.18 946.03 432.76 947.81 413.5C948.67 404.2 948.54 394.84 949.28 385.52C951.27 360.86 952.51 336.15 954.12 311.5C954.81 300.93 957.03 289.73 955.83 279.12C954.44 274.27 950.06 273.44 945.81 271.59C937.19 267.83 928.37 264.46 919.72 260.75C883.63 245.23 847.01 230.87 810.8 215.62C751.61 190.7 692.38 165.59 632.78 141.72C614.31 134.33 596.11 126.25 577.66 118.84C572.12 116.62 560.99 110.51 555.5 110.41C549.35 110.29 540.19 115.58 534.26 117.72C519.2 123.18 504.29 129.11 489.24 134.67C432.75 155.54 376.5 177.15 320.2 198.6C274.23 216.11 228.2 233.33 182.2 250.64C171.53 254.65 160.94 258.8 150.27 262.76C145.55 264.52 139.9 265.43 138.95 270.87Z" fill="#ffffff" fill-rule="evenodd" stroke="#ffffff" stroke-width="0.25" stroke-linejoin="round"/>
<path d="M955.83 279.12C957.03 289.73 954.81 300.93 954.12 311.5C952.51 336.15 951.27 360.86 949.28 385.52C948.54 394.84 948.67 404.2 947.81 413.5C946.03 432.76 945.39 452.18 943.9 471.5C940.6 514.43 938.5 557.57 935.05 600.5C932.18 636.13 930.34 671.84 928.03 707.5C927.41 717.14 926.51 726.86 926.14 736.5C925.95 741.65 926.13 752.26 924.34 756.8C922.17 762.33 910.72 767.03 905.61 770.09C892.85 777.73 879.98 785.22 867.08 792.61C860.5 796.37 853.99 801.46 846.89 804.06C846.76 803.78 846.63 803.49 846.5 803.21C844.68 804.31 842.86 805.4 841.04 806.5C841.37 806.62 841.69 806.73 842.02 806.85C837.97 809.25 833.93 811.64 829.89 814.04C829.76 813.74 829.63 813.43 829.5 813.12C827.59 814.25 825.67 815.37 823.76 816.5C824.15 816.64 824.54 816.79 824.92 816.93C822.58 818.3 820.23 819.67 817.88 821.04C817.75 820.76 817.63 820.49 817.5 820.21C815.58 821.31 813.65 822.4 811.73 823.5C812.18 823.63 812.63 823.75 813.07 823.88C812.4 824.27 811.72 824.67 811.04 825.07C810.86 824.79 810.68 824.52 810.5 824.24C809.27 825 808.04 825.75 806.8 826.5C807.15 826.67 807.49 826.83 807.84 827C807.22 827.35 806.6 827.71 805.98 828.06C805.82 827.77 805.66 827.48 805.5 827.18C803.66 828.47 801.82 829.76 799.98 831.05C798.2 831.87 796.43 832.68 794.65 833.5C795.06 833.66 795.47 833.82 795.87 833.98C793.61 835.33 791.35 836.69 789.08 838.05C788.89 837.71 788.69 837.38 788.5 837.05C784.89 839.2 781.29 841.35 777.68 843.5C778.06 843.65 778.43 843.8 778.81 843.95C778.21 844.32 777.6 844.69 777 845.06C776.83 844.74 776.67 844.42 776.5 844.11C774.69 845.24 772.87 846.37 771.06 847.5C771.4 847.62 771.73 847.74 772.07 847.86C771.39 848.26 770.72 848.67 770.04 849.07C769.86 848.8 769.68 848.53 769.5 848.25C768.22 849 766.94 849.75 765.65 850.5C766.07 850.66 766.48 850.82 766.89 850.98C764.6 852.34 762.3 853.7 760 855.06C759.83 854.74 759.67 854.42 759.5 854.11C758.38 855.08 757.26 856.06 756.14 857.03C753.44 858.71 750.74 860.39 748.04 862.07C747.86 861.75 747.68 861.44 747.5 861.13C746.21 861.92 744.91 862.71 743.62 863.5C744.03 863.62 744.44 863.74 744.85 863.87C743.62 864.6 742.39 865.34 741.16 866.08C740.94 865.79 740.72 865.51 740.5 865.22C739.3 865.98 738.1 866.74 736.89 867.5C737.22 867.65 737.56 867.81 737.89 867.96C734.97 869.67 732.06 871.38 729.15 873.08C728.93 872.8 728.72 872.52 728.5 872.24C727.25 872.99 726 873.75 724.75 874.5C725.14 874.65 725.53 874.81 725.92 874.96C725.3 875.34 724.67 875.71 724.05 876.08C723.86 875.74 723.68 875.41 723.5 875.07C722.41 876.05 721.32 877.04 720.24 878.02C700.47 889.7 680.71 901.38 660.94 913.07C660.79 912.77 660.65 912.47 660.5 912.17C658.62 913.28 656.73 914.39 654.85 915.5C655.27 915.63 655.69 915.76 656.11 915.89C630.4 930.95 604.69 946 578.98 961.06C578.82 960.78 578.66 960.5 578.5 960.22C577.22 960.98 575.93 961.74 574.65 962.5C575.06 962.65 575.47 962.79 575.88 962.94C575.23 963.31 574.59 963.68 573.94 964.05C573.79 963.77 573.65 963.5 573.5 963.23C572.38 964.16 571.26 965.09 570.14 966.01C567.77 967.4 565.4 968.79 563.02 970.17C561.21 970.95 559.39 971.72 557.57 972.5C557.98 972.65 558.39 972.81 558.8 972.96C558.16 973.32 557.53 973.68 556.89 974.04C556.76 973.72 556.63 973.4 556.5 973.08C554.66 974.38 552.82 975.67 550.97 976.97C549.15 977.81 547.33 978.66 545.51 979.5C545.97 979.64 546.42 979.78 546.87 979.93C546.24 980.3 545.61 980.67 544.98 981.04C542.82 981.39 540.66 981.74 538.5 982.09C536.03 978.69 536.75 974.58 536.74 970.5C536.72 962.16 536.73 953.85 536.67 945.5C536.47 914.84 536.78 884.18 536.59 853.52C536.02 763.24 536.52 672.89 535.96 582.5C535.81 558.17 535.68 533.83 535.82 509.5C535.87 502.16 535.94 494.83 535.87 487.5C535.84 484.28 536.44 480.43 535.18 477.38C532.83 471.66 517.49 469.84 513.57 463.87C514.16 463.93 514.74 463.38 515.32 463.51C516.98 463.88 526.53 469.27 528 470.5C531.58 469.7 536.56 471.78 539.5 474C553.27 469.55 566.27 462.22 579.51 456.06C606.49 443.49 633.46 431.17 660.44 418.87C701.05 400.35 742.21 382.39 782.45 362.76C805.28 351.62 829.14 341.92 851.59 330.01C859.83 325.64 868.6 321.92 877 318.11C893.69 310.54 909.86 301.8 926.55 294.13C933.16 291.1 940.15 288.12 946.34 284.68C949.54 282.9 953.94 282.11 955.83 279.12ZM149.16 432.88C149.42 433.09 149.68 433.29 149.94 433.5C149.9 435.67 149.85 437.83 149.81 440C149.6 439.83 149.38 439.67 149.17 439.5C149.17 437.29 149.17 435.09 149.16 432.88Z" fill="#b4a9e8" fill-rule="evenodd" stroke="#b4a9e8" stroke-width="0.25" stroke-linejoin="round"/>
<path d="M138.95 270.87C263.82 335.2 388.7 399.53 513.57 463.87C517.49 469.84 532.83 471.66 535.18 477.38C536.44 480.43 535.84 484.28 535.87 487.5C535.94 494.83 535.87 502.16 535.82 509.5C535.68 533.83 535.81 558.17 535.96 582.5C536.52 672.89 536.02 763.24 536.59 853.52C536.78 884.18 536.47 914.84 536.67 945.5C536.73 953.85 536.72 962.16 536.74 970.5C536.75 974.58 536.03 978.69 538.5 982.09C540.66 981.74 542.82 981.39 544.98 981.04C542.12 982.86 539.06 985.07 535.5 984.85C532.03 984.63 528.56 981.52 525.78 979.69C518.14 974.65 510.4 969.77 502.75 964.74C465.9 940.54 428.88 916.58 391.86 892.64C339.45 858.74 287.42 824.29 234.84 790.64C219.42 780.77 204.08 770.76 188.76 760.73C184.01 757.62 173.43 752.51 170.71 747.77C167.92 742.93 168.18 724.91 167.88 718.5C166.91 697.83 165.18 677.15 163.9 656.5C160.78 606.49 157.5 556.48 154.01 506.5C152.47 484.46 149.93 462.12 149.81 440C149.85 437.83 149.9 435.67 149.94 433.5C149.68 433.29 149.42 433.09 149.16 432.88C145.76 378.87 142.36 324.87 138.95 270.87ZM846.89 804.06C845.26 804.99 843.64 805.92 842.02 806.85C841.69 806.73 841.37 806.62 841.04 806.5C842.86 805.4 844.68 804.31 846.5 803.21C846.63 803.49 846.76 803.78 846.89 804.06ZM829.89 814.04C828.24 815 826.58 815.97 824.92 816.93C824.54 816.79 824.15 816.64 823.76 816.5C825.67 815.37 827.59 814.25 829.5 813.12C829.63 813.43 829.76 813.74 829.89 814.04ZM817.88 821.04C816.28 821.98 814.68 822.93 813.07 823.88C812.63 823.75 812.18 823.63 811.73 823.5C813.65 822.4 815.58 821.31 817.5 820.21C817.63 820.49 817.75 820.76 817.88 821.04ZM811.04 825.07C809.97 825.71 808.91 826.35 807.84 827C807.49 826.83 807.15 826.67 806.8 826.5C808.04 825.75 809.27 825 810.5 824.24C810.68 824.52 810.86 824.79 811.04 825.07ZM805.98 828.06C803.98 829.06 801.98 830.05 799.98 831.05C801.82 829.76 803.66 828.47 805.5 827.18C805.66 827.48 805.82 827.77 805.98 828.06ZM799.98 831.05C798.61 832.03 797.24 833 795.87 833.98C795.47 833.82 795.06 833.66 794.65 833.5C796.43 832.68 798.2 831.87 799.98 831.05ZM789.08 838.05C785.66 840.02 782.23 841.98 778.81 843.95C778.43 843.8 778.06 843.65 777.68 843.5C781.29 841.35 784.89 839.2 788.5 837.05C788.69 837.38 788.89 837.71 789.08 838.05ZM777 845.06C775.36 845.99 773.71 846.92 772.07 847.86C771.73 847.74 771.4 847.62 771.06 847.5C772.87 846.37 774.69 845.24 776.5 844.11C776.67 844.42 776.83 844.74 777 845.06ZM770.04 849.07C768.99 849.71 767.94 850.34 766.89 850.98C766.48 850.82 766.07 850.66 765.65 850.5C766.94 849.75 768.22 849 769.5 848.25C769.68 848.53 769.86 848.8 770.04 849.07ZM760 855.06C758.72 855.72 757.43 856.37 756.14 857.03C757.26 856.06 758.38 855.08 759.5 854.11C759.67 854.42 759.83 854.74 760 855.06ZM748.04 862.07C746.98 862.67 745.92 863.27 744.85 863.87C744.44 863.74 744.03 863.62 743.62 863.5C744.91 862.71 746.21 861.92 747.5 861.13C747.68 861.44 747.86 861.75 748.04 862.07ZM741.16 866.08C740.07 866.71 738.98 867.34 737.89 867.96C737.56 867.81 737.22 867.65 736.89 867.5C738.1 866.74 739.3 865.98 740.5 865.22C740.72 865.51 740.94 865.79 741.16 866.08ZM729.15 873.08C728.07 873.71 727 874.34 725.92 874.96C725.53 874.81 725.14 874.65 724.75 874.5C726 873.75 727.25 872.99 728.5 872.24C728.72 872.52 728.93 872.8 729.15 873.08ZM724.05 876.08C722.78 876.73 721.51 877.37 720.24 878.02C721.32 877.04 722.41 876.05 723.5 875.07C723.68 875.41 723.86 875.74 724.05 876.08ZM660.94 913.07C659.33 914.01 657.72 914.95 656.11 915.89C655.69 915.76 655.27 915.63 654.85 915.5C656.73 914.39 658.62 913.28 660.5 912.17C660.65 912.47 660.79 912.77 660.94 913.07ZM578.98 961.06C577.95 961.69 576.91 962.31 575.88 962.94C575.47 962.79 575.06 962.65 574.65 962.5C575.93 961.74 577.22 960.98 578.5 960.22C578.66 960.5 578.82 960.78 578.98 961.06ZM573.94 964.05C572.67 964.7 571.41 965.36 570.14 966.01C571.26 965.09 572.38 964.16 573.5 963.23C573.65 963.5 573.79 963.77 573.94 964.05ZM563.02 970.17C561.62 971.1 560.21 972.03 558.8 972.96C558.39 972.81 557.98 972.65 557.57 972.5C559.39 971.72 561.21 970.95 563.02 970.17ZM556.89 974.04C554.92 975.02 552.95 975.99 550.97 976.97C552.82 975.67 554.66 974.38 556.5 973.08C556.63 973.4 556.76 973.72 556.89 974.04ZM550.97 976.97C549.61 977.96 548.24 978.94 546.87 979.93C546.42 979.78 545.97 979.64 545.51 979.5C547.33 978.66 549.15 977.81 550.97 976.97Z" fill="#8570d5" fill-rule="evenodd" stroke="#8570d5" stroke-width="0.25" stroke-linejoin="round"/>
<path d="M955.83 279.12C953.94 282.11 949.54 282.9 946.34 284.68C940.15 288.12 933.16 291.1 926.55 294.13C909.86 301.8 893.69 310.54 877 318.11C868.6 321.92 859.83 325.64 851.59 330.01C829.14 341.92 805.28 351.62 782.45 362.76C742.21 382.39 701.05 400.35 660.44 418.87C633.46 431.17 606.49 443.49 579.51 456.06C566.27 462.22 553.27 469.55 539.5 474C536.56 471.78 531.58 469.7 528 470.5C526.53 469.27 516.98 463.88 515.32 463.51C514.74 463.38 514.16 463.93 513.57 463.87C388.7 399.53 263.82 335.2 138.95 270.87C139.9 265.43 145.55 264.52 150.27 262.76C160.94 258.8 171.53 254.65 182.2 250.64C228.2 233.33 274.23 216.11 320.2 198.6C376.5 177.15 432.75 155.54 489.24 134.67C504.29 129.11 519.2 123.18 534.26 117.72C540.19 115.58 549.35 110.29 555.5 110.41C560.99 110.51 572.12 116.62 577.66 118.84C596.11 126.25 614.31 134.33 632.78 141.72C692.38 165.59 751.61 190.7 810.8 215.62C847.01 230.87 883.63 245.23 919.72 260.75C928.37 264.46 937.19 267.83 945.81 271.59C950.06 273.44 954.44 274.27 955.83 279.12Z" fill="#d5d1f0" fill-rule="evenodd" stroke="#d5d1f0" stroke-width="0.25" stroke-linejoin="round"/>
</svg>